<svg width="2859" height="2221" xmlns="http://www.w3.org/2000/svg" xmlns:xlink="http://www.w3.org/1999/xlink" xml:space="preserve" overflow="hidden"><defs><filter id="fx0" x="-10%" y="-10%" width="120%" height="120%" filterUnits="userSpaceOnUse" primitiveUnits="userSpaceOnUse"><feComponentTransfer color-interpolation-filters="sRGB"><feFuncR type="discrete" tableValues="0 0"/><feFuncG type="discrete" tableValues="0 0"/><feFuncB type="discrete" tableValues="0 0"/><feFuncA type="linear" slope="0.4" intercept="0"/></feComponentTransfer><feGaussianBlur stdDeviation="7.63889 7.63889"/></filter><clipPath id="clip1"><rect x="-7" y="25" width="1033" height="1166"/></clipPath></defs><g transform="translate(-761 -89)"><g clip-path="url(#clip1)" filter="url(#fx0)" transform="translate(1682 89)"><g><path d="M485.923 1066.45 291.307 969.116 291.307 572.468 485.923 669.805 485.923 1066.45ZM242.653 969.116 96.6911 1042.12 96.6911 645.47 242.653 572.468 242.653 969.116ZM916.511 560.3 916.511 560.3 886.103 626.002 923.809 645.47 923.809 1042.12 777.847 969.116 777.847 807.293 729.193 807.293 729.193 969.116 534.577 1066.45 534.577 669.805 620.938 626.002 590.529 560.3 510.25 600.451 266.98 478.78 23.7101 600.451 23.7101 1160.14 266.98 1038.47 510.25 1160.14 753.52 1038.47 996.79 1160.14 996.79 600.451 916.511 560.3Z" fill-rule="evenodd"/><g><g><g><path d="M878.03 465.533C856.17 399.437 787.837 397.629 786.804 397.716L779.403 327.23C822.434 287.986 856.859 230.926 856.859 164.744 856.859 66.8913 831.04 58.2851 816.495 56.822 801.951 55.359 768.214 77.477 748.248 127.565 728.281 177.654 737.834 256.659 740.502 278.089 740.502 278.089 617.003 348.057 618.208 476.032 618.208 496.946 632.064 616.142 783.361 615.798 789.53 640.5 792.423 665.904 791.968 691.361 788.267 734.392 763.653 745.322 743.859 746.613 763.797 726.222 763.429 693.53 743.039 673.591 722.648 653.653 689.955 654.02 670.017 674.411 660.594 684.048 655.312 696.988 655.3 710.467 655.661 728.998 665 746.2 680.345 756.596 747.387 805.566 828.802 757.973 822.003 683.787 821.143 674.406 814.688 621.134 812.881 606.847 812.881 606.847 851.695 589.635 868.908 559.857 884.251 530.844 887.529 496.949 878.03 465.533ZM812.365 137.979C831.04 144.348 822.434 182.129 816.495 195.985 810.557 209.841 788.009 251.237 770.194 258.208 762.19 182.387 788.009 135.741 812.365 137.979ZM676.988 542.817C617.347 411.83 752.293 343.238 753.584 342.291 755.305 356.492 755.735 390.056 757.457 404.342 698.762 425.169 690.156 475.86 693.34 501.507 701.086 563.042 761.588 571.562 765.374 561.751 767.084 558.609 766.673 554.737 764.342 552.026 710.897 492.815 762.276 467.684 765.116 466.652L779.403 586.192C735.339 596.176 688.004 567.173 676.988 542.817ZM808.578 575.607 795.582 461.746C825.016 458.476 876.653 516.912 808.578 575.607Z"/></g></g></g></g></g><path d="M2170.15 1146.15 1979.35 1050.72 1979.35 661.851 2170.15 757.279 2170.15 1146.15ZM1931.65 1050.72 1788.55 1122.29 1788.55 733.422 1931.65 661.851 1931.65 1050.72ZM2592.29 649.922 2592.29 649.922 2562.48 714.335 2599.45 733.422 2599.45 1122.29 2456.35 1050.72 2456.35 892.071 2408.65 892.071 2408.65 1050.72 2217.85 1146.15 2217.85 757.279 2302.52 714.335 2272.71 649.922 2194 689.286 1955.5 570 1717 689.286 1717 1238 1955.5 1118.71 2194 1238 2432.5 1118.71 2671 1238 2671 689.286 2592.29 649.922Z" fill-rule="evenodd"/><g><g><g><path d="M2554.57 557.013C2533.14 492.213 2466.14 490.441 2465.13 490.525L2457.88 421.422C2500.06 382.947 2533.81 327.006 2533.81 262.122 2533.81 166.188 2508.5 157.75 2494.24 156.316 2479.98 154.881 2446.91 176.566 2427.33 225.672 2407.76 274.778 2417.12 352.234 2419.74 373.244 2419.74 373.244 2298.66 441.841 2299.84 567.306 2299.84 587.809 2313.43 704.669 2461.76 704.331 2467.8 728.549 2470.64 753.455 2470.19 778.413 2466.57 820.6 2442.43 831.316 2423.03 832.581 2442.58 812.59 2442.21 780.539 2422.22 760.992 2402.23 741.444 2370.18 741.804 2350.63 761.795 2341.4 771.243 2336.22 783.93 2336.21 797.144 2336.56 815.312 2345.72 832.176 2360.76 842.369 2426.49 890.378 2506.31 843.719 2499.64 770.988 2498.8 761.791 2492.47 709.563 2490.7 695.556 2490.7 695.556 2528.75 678.681 2545.62 649.488 2560.67 621.043 2563.88 587.813 2554.57 557.013ZM2490.19 235.881C2508.5 242.125 2500.06 279.166 2494.24 292.75 2488.42 306.334 2466.31 346.919 2448.85 353.753 2441 279.419 2466.31 233.688 2490.19 235.881ZM2357.47 632.781C2299 504.363 2431.3 437.116 2432.56 436.188 2434.25 450.109 2434.67 483.016 2436.36 497.022 2378.82 517.441 2370.38 567.138 2373.5 592.281 2381.09 652.609 2440.41 660.963 2444.12 651.344 2445.8 648.264 2445.4 644.468 2443.11 641.809 2390.71 583.759 2441.08 559.122 2443.87 558.109L2457.88 675.306C2414.68 685.094 2368.27 656.659 2357.47 632.781ZM2486.48 664.928 2473.74 553.3C2502.59 550.094 2553.22 607.384 2486.48 664.928Z"/></g></g></g><text font-family="Market Deco,Market Deco_MSFontService,sans-serif" font-weight="400" font-size="440" transform="matrix(1 0 0 1 1025.99 1593)">Community</text><text font-family="Market Deco,Market Deco_MSFontService,sans-serif" font-weight="400" font-size="440" transform="matrix(1 0 0 1 1476.12 1961)">Mapper</text></g></svg>